<?xml version="1.0" encoding="UTF-8" standalone="no"?>
<svg
   width="24px"
   height="22px"
   viewBox="0 0 24 22"
   version="1.1"
   id="svg8"
   sodipodi:docname="Like-filled.svg"
   inkscape:version="1.1 (c68e22c387, 2021-05-23)"
   xmlns:inkscape="http://www.inkscape.org/namespaces/inkscape"
   xmlns:sodipodi="http://sodipodi.sourceforge.net/DTD/sodipodi-0.dtd"
   xmlns="http://www.w3.org/2000/svg"
   xmlns:svg="http://www.w3.org/2000/svg"
   xmlns:rdf="http://www.w3.org/1999/02/22-rdf-syntax-ns#"
   xmlns:cc="http://creativecommons.org/ns#"
   xmlns:dc="http://purl.org/dc/elements/1.1/">
  <defs
     id="defs12" />
  <sodipodi:namedview
     id="namedview10"
     pagecolor="#ffffff"
     bordercolor="#666666"
     borderopacity="1.0"
     inkscape:pageshadow="2"
     inkscape:pageopacity="0.0"
     inkscape:pagecheckerboard="0"
     showgrid="false"
     inkscape:zoom="39"
     inkscape:cx="12.012821"
     inkscape:cy="8.6794872"
     inkscape:window-width="1920"
     inkscape:window-height="1017"
     inkscape:window-x="1912"
     inkscape:window-y="-3"
     inkscape:window-maximized="1"
     inkscape:current-layer="svg8" />
  <title
     id="title2">Vector</title>
  <g
     id="Page-1"
     stroke="none"
     stroke-width="1"
     fill="none"
     fill-rule="evenodd"
     stroke-linecap="round"
     stroke-linejoin="round">
    <g
       id="iPhone-13-Pro-Max"
       transform="translate(-381.000000, -720.000000)"
       stroke="#FFFFFF"
       stroke-width="1.5">
      <g
         id="Vector"
         transform="translate(382.000000, 721.000000)">
        <path
           d="M10.7761551,20 L6.27614557,15.381448 L1.81154572,10.762896 C-0.603848601,8.2103652 -0.603848601,4.2153428 1.81154572,1.662811 C2.99426594,0.52612968 4.59619971,-0.06787151 6.23407264,0.02292678 C7.87194535,0.113725066 9.39840574,0.8811542 10.4482368,2.1416008 L10.7761551,2.4633598 L11.1009923,2.1277452 C12.1508234,0.86729854 13.6772846,0.09986942 15.3151584,0.0090711244 C16.9530298,-0.08172716 18.5549645,0.51227402 19.7376845,1.6489554 C22.1530782,4.201487 22.1530782,8.1965094 19.7376845,10.7490408 L15.2730836,15.367592 L10.7761551,20 Z"
           id="vector-18" />
      </g>
    </g>
  </g>
  <path
     style="fill:#ffffff;stroke-width:0.025641"
     d="M 9.5081197,17.571571 C 5.6649505,13.625451 3.2704797,11.139184 3.0557088,10.871795 2.7700724,10.516178 2.5786944,10.214646 2.3722018,9.7948718 1.5732745,8.170749 1.560529,6.3273436 2.3370109,4.7051282 2.7092647,3.9274207 3.1831199,3.3087051 3.7388095,2.874791 5.0969359,1.8142889 6.887599,1.5014602 8.5128205,2.0407716 c 0.5366541,0.1780827 1.0900031,0.4717911 1.5512825,0.8233949 0.09167,0.069872 0.408974,0.3730999 0.705128,0.6738405 0.355601,0.3611086 0.577646,0.5664309 0.653846,0.6046044 0.160654,0.080482 0.43545,0.096542 0.618486,0.036147 0.14543,-0.047986 0.25698,-0.1506376 0.907155,-0.8347883 0.871965,-0.9175298 2.037739,-1.462572 3.348984,-1.5657726 1.548571,-0.1218791 3.237008,0.5772143 4.168319,1.7258831 1.112423,1.3720509 1.546349,3.1367822 1.196911,4.8677145 -0.183513,0.9090274 -0.637181,1.8519509 -1.233664,2.5641019 -0.192265,0.229548 -2.599731,2.727266 -6.78393,7.038248 -1.013013,1.043708 -1.85098,1.901011 -1.86215,1.905119 -0.01117,0.0041 -1.03495,-1.034354 -2.2750683,-2.307693 z"
     id="path977" />
  <path
     style="fill:#ffffff;stroke-width:0.025641"
     d="M 11.551116,21.733703 C 11.349399,21.66842 11.391756,21.710089 8.3553356,18.589744 5.8869251,16.053107 2.2107337,12.247517 2.0391969,12.051282 1.3359117,11.246737 0.78973977,10.221703 0.49893831,9.1605856 0.18477823,8.0142341 0.16110844,6.6738169 0.43452415,5.5128205 0.80469074,3.9409938 1.7396478,2.4472827 2.8846154,1.5984923 4.3907426,0.48196608 6.2028297,0.04197585 8.0341826,0.34813334 9.32121,0.56329287 10.563824,1.1868685 11.510684,2.0927309 l 0.258547,0.247352 0.260382,-0.2506817 c 1.015839,-0.9779917 2.261505,-1.5770481 3.739618,-1.79842814 0.350514,-0.0524972 1.461291,-0.0455975 1.817073,0.011287 1.283595,0.20522789 2.355912,0.68019481 3.311132,1.46661674 1.03825,0.8547794 1.902975,2.3230632 2.227595,3.7824054 0.4432,1.9924216 0.073,4.0408441 -1.03216,5.7112378 -0.278718,0.421269 -0.561663,0.768282 -0.972884,1.193177 -0.19419,0.200649 -1.032953,1.068662 -1.863917,1.928918 -4.961364,5.136258 -7.013394,7.234974 -7.133475,7.295766 -0.130676,0.06616 -0.442051,0.09521 -0.571479,0.05332 z"
     id="path1016" />
  <path
     style="fill:#000000;stroke-width:0.025641;fill-opacity:1"
     d="m 11.457983,21.710464 c -0.04426,-0.02409 -0.146528,-0.10149 -0.227255,-0.172002 C 10.940103,21.284608 3.0521085,13.164176 2.1108869,12.149884 1.4663679,11.455328 0.89736362,10.460465 0.58064113,9.474359 0.42057711,8.9760044 0.32436336,8.5062051 0.26682165,7.9420192 0.22814622,7.5628138 0.25092769,6.4742005 0.30494234,6.1204218 0.50189556,4.8304408 1.0427912,3.5884818 1.8384487,2.5993137 2.8255505,1.3721405 4.2602097,0.57553262 5.974359,0.30281078 6.3631205,0.24095867 7.4417838,0.2407705 7.8411587,0.30248512 9.2220515,0.51587182 10.411702,1.0774383 11.42691,1.9951159 c 0.145969,0.1319455 0.281119,0.2589995 0.300334,0.2823423 0.03144,0.038195 0.05838,0.020266 0.269231,-0.1791843 1.011051,-0.9563814 2.077803,-1.49593495 3.516346,-1.77853475 0.35031,-0.068818 1.311759,-0.0973093 1.812467,-0.0537101 0.722461,0.0629085 1.662211,0.33281159 2.32417,0.66751843 0.78542,0.39713242 1.535523,0.99235362 2.038706,1.61775182 0.624579,0.7762804 1.148752,1.8181553 1.391775,2.7663638 0.463993,1.8103777 0.246745,3.7105933 -0.610076,5.3361829 -0.274919,0.521587 -0.690881,1.113221 -1.081649,1.538462 -0.531861,0.57878 -7.396798,7.657552 -8.618983,8.887455 -0.564533,0.568098 -0.625328,0.621641 -0.735714,0.647959 -0.182887,0.0436 -0.480073,0.03469 -0.575534,-0.01726 z"
     id="path1055" />
  <metadata
     id="metadata1501">
    <rdf:RDF>
      <cc:Work
         rdf:about="">
        <dc:title>Vector</dc:title>
      </cc:Work>
    </rdf:RDF>
  </metadata>
</svg>
